<svg width="18" height="18" viewBox="0 0 18 18" fill="none" xmlns="http://www.w3.org/2000/svg">
<path d="M13 1.00006H5C2.79086 1.00006 1 2.79092 1 5.00006V13.0001C1 15.2092 2.79086 17.0001 5 17.0001H13C15.2091 17.0001 17 15.2092 17 13.0001V5.00006C17 2.79092 15.2091 1.00006 13 1.00006Z" stroke="#4A27B5" stroke-width="1.44" stroke-linecap="round" stroke-linejoin="round"/>
<path d="M12.2004 8.49606C12.2991 9.16185 12.1854 9.84183 11.8754 10.4393C11.5654 11.0367 11.0749 11.5212 10.4737 11.8238C9.87244 12.1264 9.19111 12.2317 8.52658 12.1248C7.86205 12.0179 7.24816 11.7041 6.77222 11.2282C6.29629 10.7522 5.98254 10.1384 5.87561 9.47383C5.76867 8.8093 5.874 8.12797 6.17661 7.52676C6.47922 6.92554 6.9637 6.43505 7.56114 6.12505C8.15858 5.81505 8.83855 5.70133 9.50435 5.80006C10.1835 5.90077 10.8122 6.21723 11.2977 6.7027C11.7832 7.18818 12.0996 7.81692 12.2004 8.49606Z" stroke="#4A27B5" stroke-width="1.44" stroke-linecap="round" stroke-linejoin="round"/>
<path d="M13.3994 4.60004H13.4077" stroke="#4A27B5" stroke-width="1.44" stroke-linecap="round" stroke-linejoin="round"/>
</svg>
