<svg width="20" height="20" viewBox="0 0 20 20" fill="none" xmlns="http://www.w3.org/2000/svg">
<g clip-path="url(#clip0_200_20396)">
<path d="M1.67034 18.3334L2.797 14.1934C2.05462 12.9208 1.66458 11.4734 1.667 10.0001C1.667 5.39758 5.39784 1.66675 10.0003 1.66675C14.6028 1.66675 18.3337 5.39758 18.3337 10.0001C18.3337 14.6026 14.6028 18.3334 10.0003 18.3334C8.52765 18.3358 7.08088 17.9461 5.80867 17.2042L1.67034 18.3334ZM6.99284 6.09008C6.88522 6.09676 6.78007 6.12511 6.68367 6.17341C6.59327 6.22461 6.51075 6.2886 6.43867 6.36341C6.33867 6.45758 6.282 6.53925 6.22117 6.61841C5.91318 7.01924 5.74751 7.51126 5.75034 8.01675C5.752 8.42508 5.85867 8.82258 6.02534 9.19425C6.36617 9.94591 6.927 10.7417 7.66784 11.4792C7.84617 11.6567 8.02034 11.8351 8.20784 12.0009C9.12733 12.8105 10.223 13.3943 11.4078 13.7059L11.882 13.7784C12.0362 13.7867 12.1903 13.7751 12.3453 13.7676C12.588 13.7551 12.825 13.6893 13.0395 13.5751C13.1778 13.5017 13.2428 13.4651 13.3587 13.3917C13.3587 13.3917 13.3945 13.3684 13.4628 13.3167C13.5753 13.2334 13.6445 13.1742 13.7378 13.0767C13.807 13.0051 13.867 12.9209 13.9128 12.8251C13.9778 12.6892 14.0428 12.4301 14.0695 12.2142C14.0895 12.0492 14.0837 11.9592 14.0812 11.9034C14.0778 11.8142 14.0037 11.7217 13.9228 11.6826L13.4378 11.4651C13.4378 11.4651 12.7128 11.1492 12.2703 10.9476C12.2237 10.9272 12.1737 10.9157 12.1228 10.9134C12.0658 10.9076 12.0082 10.914 11.9539 10.9322C11.8995 10.9505 11.8498 10.9802 11.8078 11.0192V11.0176C11.8037 11.0176 11.7478 11.0651 11.1453 11.7951C11.1108 11.8415 11.0631 11.8767 11.0085 11.896C10.9539 11.9153 10.8948 11.9178 10.8387 11.9034C10.7844 11.8889 10.7312 11.8705 10.6795 11.8484C10.5762 11.8051 10.5403 11.7884 10.4695 11.7576L10.4653 11.7559C9.98859 11.5478 9.54719 11.2666 9.157 10.9226C9.052 10.8309 8.9545 10.7309 8.8545 10.6342C8.52665 10.3203 8.24093 9.96509 8.0045 9.57758L7.95534 9.49841C7.92002 9.44522 7.89147 9.38783 7.87034 9.32758C7.83867 9.20508 7.92117 9.10675 7.92117 9.10675C7.92117 9.10675 8.12367 8.88508 8.21784 8.76508C8.29624 8.66535 8.3694 8.5616 8.437 8.45425C8.53534 8.29592 8.56617 8.13341 8.5145 8.00758C8.28117 7.43758 8.0395 6.87008 7.79117 6.30675C7.742 6.19508 7.59617 6.11508 7.46367 6.09925C7.41867 6.09425 7.37367 6.08925 7.32867 6.08591C7.21676 6.08035 7.10462 6.0823 6.99284 6.09008Z" fill="#4A27B5"/>
</g>
<defs>
<clipPath id="clip0_200_20396">
<rect width="20" height="20" fill="white"/>
</clipPath>
</defs>
</svg>
