<svg width="28" height="28" viewBox="0 0 28 28" fill="none" xmlns="http://www.w3.org/2000/svg">
<g clip-path="url(#clip0_351_555)">
<g filter="url(#filter0_d_351_555)">
<path d="M0 7.52688C0 3.3699 3.3699 0 7.52688 0H20.4731C24.6301 0 28 3.3699 28 7.52688V20.4731C28 24.6301 24.6301 28 20.4731 28H7.52688C3.3699 28 0 24.6301 0 20.4731V7.52688Z" fill="url(#paint0_linear_351_555)" shape-rendering="crispEdges"/>
<path fill-rule="evenodd" clip-rule="evenodd" d="M9.28235 13.7583C8.55252 13.4563 7.75 13.9927 7.75 14.7826V20.7179C7.75 22.0451 8.82598 23.1211 10.1533 23.1211V23.1211C11.4806 23.1211 12.5566 22.0451 12.5566 20.7179V19.0622C12.5566 18.1427 12.2443 17.2504 11.6711 16.5315L9.72519 14.0914C9.60816 13.9447 9.45579 13.8301 9.28235 13.7583V13.7583ZM7.75 8.93452C7.75 11.1086 9.41114 12.9223 11.5768 13.1129L12.5823 13.2014V14.6958C12.5823 16.2714 13.8596 17.5487 15.4352 17.5487V17.5487C16.7557 17.5487 17.8737 17.311 18.7892 16.8356C19.8632 16.2898 20.7083 15.5063 21.3246 14.4852C21.9584 13.464 22.2753 12.346 22.2753 11.1311C22.2753 9.9163 21.9584 8.80709 21.3246 7.80353C20.6907 6.78235 19.8368 5.99887 18.7628 5.45307C17.8297 4.97769 16.7205 4.74001 15.4352 4.74001H11.9445C9.62795 4.74001 7.75 6.61795 7.75 8.93452V8.93452ZM12.5823 13.2014L15.6805 13.474C16.2128 13.474 16.6636 13.3782 17.0326 13.1865C17.4656 12.9665 17.8063 12.6506 18.0547 12.239C18.3103 11.8273 18.438 11.3766 18.438 10.8868C18.438 10.3971 18.3103 9.9499 18.0547 9.54532C17.7992 9.13365 17.455 8.81779 17.022 8.59776C16.6458 8.40612 16.1986 8.3103 15.6805 8.3103V8.3103C13.9694 8.3103 12.5823 9.69741 12.5823 11.4085V13.2014Z" fill="white"/>
</g>
</g>
<defs>
<filter id="filter0_d_351_555" x="-114.882" y="-105.692" width="257.764" height="257.764" filterUnits="userSpaceOnUse" color-interpolation-filters="sRGB">
<feFlood flood-opacity="0" result="BackgroundImageFix"/>
<feColorMatrix in="SourceAlpha" type="matrix" values="0 0 0 0 0 0 0 0 0 0 0 0 0 0 0 0 0 0 127 0" result="hardAlpha"/>
<feOffset dy="9.19057"/>
<feGaussianBlur stdDeviation="57.4411"/>
<feComposite in2="hardAlpha" operator="out"/>
<feColorMatrix type="matrix" values="0 0 0 0 0 0 0 0 0 0 0 0 0 0 0 0 0 0 0.1 0"/>
<feBlend mode="normal" in2="BackgroundImageFix" result="effect1_dropShadow_351_555"/>
<feBlend mode="normal" in="SourceGraphic" in2="effect1_dropShadow_351_555" result="shape"/>
</filter>
<linearGradient id="paint0_linear_351_555" x1="14" y1="3.16289e-07" x2="3.3871" y2="28.828" gradientUnits="userSpaceOnUse">
<stop stop-color="#512FBB"/>
<stop offset="1" stop-color="#2D099B"/>
</linearGradient>
<clipPath id="clip0_351_555">
<rect width="28" height="28" fill="white"/>
</clipPath>
</defs>
</svg>
