<svg viewBox="0 0 83 28" fill="none" xmlns="http://www.w3.org/2000/svg">
<g filter="url(#filter0_d_344_551)">
<path d="M-1 7.52688C-1 3.3699 2.3699 0 6.52688 0H19.4731C23.6301 0 27 3.3699 27 7.52688V20.4731C27 24.6301 23.6301 28 19.4731 28H6.52688C2.3699 28 -1 24.6301 -1 20.4731V7.52688Z" fill="url(#paint0_linear_344_551)" shape-rendering="crispEdges"/>
<path fill-rule="evenodd" clip-rule="evenodd" d="M8.28236 13.7583C7.55252 13.4563 6.75 13.9927 6.75 14.7826V20.7179C6.75 22.0451 7.82598 23.1211 9.15328 23.1211C10.4806 23.1211 11.5566 22.0451 11.5566 20.7179V19.0622C11.5566 18.1427 11.2443 17.2504 10.6711 16.5315L8.72519 14.0914C8.60816 13.9447 8.45579 13.8301 8.28236 13.7583ZM6.75 8.93452C6.75 11.1086 8.41114 12.9223 10.5768 13.1129L11.5823 13.2014V14.6958C11.5823 16.2714 12.8596 17.5487 14.4352 17.5487C15.7557 17.5487 16.8737 17.311 17.7892 16.8356C18.8632 16.2898 19.7083 15.5063 20.3246 14.4852C20.9584 13.464 21.2753 12.346 21.2753 11.1311C21.2753 9.9163 20.9584 8.80709 20.3246 7.80353C19.6907 6.78235 18.8368 5.99887 17.7628 5.45307C16.8297 4.97769 15.7205 4.74001 14.4352 4.74001H10.9445C8.62795 4.74001 6.75 6.61795 6.75 8.93452ZM11.5823 13.2014L14.6805 13.474C15.2128 13.474 15.6636 13.3782 16.0326 13.1865C16.4656 12.9665 16.8063 12.6506 17.0547 12.239C17.3103 11.8273 17.438 11.3766 17.438 10.8868C17.438 10.3971 17.3103 9.9499 17.0547 9.54532C16.7992 9.13365 16.455 8.81779 16.022 8.59776C15.6458 8.40612 15.1986 8.3103 14.6805 8.3103C12.9694 8.3103 11.5823 9.69741 11.5823 11.4085V13.2014Z" fill="white"/>
</g>
<path d="M31 13.1067V4.01265H38.336C38.6565 4.01265 38.9516 4.09275 39.2214 4.25297C39.4913 4.41318 39.7063 4.6282 39.8665 4.89803C40.0267 5.15942 40.1068 5.45033 40.1068 5.77076V8.22452C40.1068 8.54494 40.0267 8.84007 39.8665 9.1099C39.7063 9.37973 39.4913 9.59475 39.2214 9.75496C38.9516 9.90674 38.6565 9.98263 38.336 9.98263L32.6696 9.99528V13.1067H31ZM32.8214 8.30041H38.2602C38.3023 8.30041 38.3403 8.28776 38.374 8.26247C38.4077 8.23717 38.4246 8.20344 38.4246 8.16128V5.834C38.4246 5.79184 38.4077 5.75811 38.374 5.73281C38.3403 5.69908 38.3023 5.68222 38.2602 5.68222H32.8214C32.7792 5.68222 32.7413 5.69908 32.7076 5.73281C32.6823 5.75811 32.6696 5.79184 32.6696 5.834V8.16128C32.6696 8.20344 32.6823 8.23717 32.7076 8.26247C32.7413 8.28776 32.7792 8.30041 32.8214 8.30041Z" fill="black"/>
<path d="M48.2651 13.1067L45.5205 9.83085H47.7086L50.0865 12.6388V13.1067H48.2651ZM41.005 13.1067V4.01265H48.341C48.6614 4.01265 48.9566 4.09275 49.2264 4.25297C49.4962 4.41318 49.7112 4.6282 49.8715 4.89803C50.0317 5.15942 50.1118 5.45033 50.1118 5.77076V8.22452C50.1118 8.54494 50.0317 8.84007 49.8715 9.1099C49.7112 9.37973 49.4962 9.59475 49.2264 9.75496C48.9566 9.90674 48.6614 9.98263 48.341 9.98263L42.6746 9.99528V13.1067H41.005ZM42.8264 8.30041H48.2651C48.3073 8.30041 48.3452 8.28776 48.379 8.26247C48.4127 8.23717 48.4296 8.20344 48.4296 8.16128V5.834C48.4296 5.79184 48.4127 5.75811 48.379 5.73281C48.3452 5.69908 48.3073 5.68222 48.2651 5.68222H42.8264C42.7842 5.68222 42.7463 5.69908 42.7125 5.73281C42.6872 5.75811 42.6746 5.79184 42.6746 5.834V8.16128C42.6746 8.20344 42.6872 8.23717 42.7125 8.26247C42.7463 8.28776 42.7842 8.30041 42.8264 8.30041Z" fill="black"/>
<path d="M51.2652 13.1067V4H52.9222V13.1067H51.2652Z" fill="black"/>
<path d="M55.9055 13.1067C55.585 13.1067 55.2899 13.0266 55.0201 12.8664C54.7587 12.7062 54.5479 12.4954 54.3877 12.234C54.2275 11.9642 54.1474 11.6691 54.1474 11.3486V5.75811C54.1474 5.43769 54.2275 5.14678 54.3877 4.88538C54.5479 4.61555 54.7587 4.40053 55.0201 4.24032C55.2899 4.08011 55.585 4 55.9055 4H63.2288V5.68222H56.2596C56.1247 5.68222 56.0151 5.72016 55.9308 5.79605C55.8549 5.87194 55.8169 5.98156 55.8169 6.12491V10.9818C55.8169 11.1168 55.8549 11.2264 55.9308 11.3107C56.0151 11.3866 56.1247 11.4245 56.2596 11.4245H63.2288V13.1067H55.9055Z" fill="black"/>
<path d="M64.5729 13.1067V4H72.9587V5.68222H66.2551V7.70594H71.6433V9.40081H66.2551V11.4245H72.9587V13.1067H64.5729Z" fill="black"/>
<path d="M31 24V14.9059H38.336C38.6564 14.9059 38.9515 14.986 39.2214 15.1462C39.4912 15.3064 39.7062 15.5214 39.8664 15.7913C40.0266 16.0527 40.1068 16.3436 40.1068 16.664V19.1178C40.1068 19.4382 40.0266 19.7333 39.8664 20.0031C39.7062 20.273 39.4912 20.488 39.2214 20.6482C38.9515 20.8 38.6564 20.8759 38.336 20.8759L32.6696 20.8885V24H31ZM32.8213 19.1937H38.2601C38.3023 19.1937 38.3402 19.181 38.3739 19.1557C38.4077 19.1304 38.4245 19.0967 38.4245 19.0545V16.7272C38.4245 16.6851 38.4077 16.6514 38.3739 16.6261C38.3402 16.5923 38.3023 16.5755 38.2601 16.5755H32.8213C32.7792 16.5755 32.7412 16.5923 32.7075 16.6261C32.6822 16.6514 32.6696 16.6851 32.6696 16.7272V19.0545C32.6696 19.0967 32.6822 19.1304 32.7075 19.1557C32.7412 19.181 32.7792 19.1937 32.8213 19.1937Z" fill="black"/>
<path d="M42.7378 24C42.4174 24 42.1222 23.9199 41.8524 23.7597C41.591 23.5995 41.3802 23.3887 41.22 23.1273C41.0598 22.8574 40.9797 22.5623 40.9797 22.2419V16.6514C40.9797 16.3309 41.0598 16.04 41.22 15.7786C41.3802 15.5088 41.591 15.2938 41.8524 15.1336C42.1222 14.9734 42.4174 14.8933 42.7378 14.8933H48.3283C48.6487 14.8933 48.9397 14.9734 49.2011 15.1336C49.4709 15.2938 49.6859 15.5088 49.8461 15.7786C50.0063 16.04 50.0864 16.3309 50.0864 16.6514V22.2419C50.0864 22.5623 50.0063 22.8574 49.8461 23.1273C49.6859 23.3887 49.4709 23.5995 49.2011 23.7597C48.9397 23.9199 48.6487 24 48.3283 24H42.7378ZM42.801 22.3178H48.2398C48.2819 22.3178 48.3199 22.3051 48.3536 22.2798C48.3873 22.2461 48.4042 22.2082 48.4042 22.166V16.7272C48.4042 16.6851 48.3873 16.6514 48.3536 16.6261C48.3199 16.5923 48.2819 16.5755 48.2398 16.5755H42.801C42.7589 16.5755 42.7209 16.5923 42.6872 16.6261C42.6619 16.6514 42.6492 16.6851 42.6492 16.7272V22.166C42.6492 22.2082 42.6619 22.2461 42.6872 22.2798C42.7209 22.3051 42.7589 22.3178 42.801 22.3178Z" fill="black"/>
<path d="M51.492 24V14.8806H53.1615V22.3178H60.5987V24H51.492Z" fill="black"/>
<path d="M61.159 24V14.8933H62.8159V24H61.159Z" fill="black"/>
<path d="M65.7992 24C65.4788 24 65.1837 23.9199 64.9138 23.7597C64.6525 23.5995 64.4417 23.3887 64.2814 23.1273C64.1212 22.8574 64.0411 22.5623 64.0411 22.2419V16.6514C64.0411 16.3309 64.1212 16.04 64.2814 15.7786C64.4417 15.5088 64.6525 15.2938 64.9138 15.1336C65.1837 14.9734 65.4788 14.8933 65.7992 14.8933H73.1226V16.5755H66.1534C66.0185 16.5755 65.9088 16.6134 65.8245 16.6893C65.7486 16.7652 65.7107 16.8748 65.7107 17.0182V21.8751C65.7107 22.01 65.7486 22.1196 65.8245 22.2039C65.9088 22.2798 66.0185 22.3178 66.1534 22.3178H73.1226V24H65.7992Z" fill="black"/>
<path d="M74.4666 24V14.8933H82.8524V16.5755H76.1489V18.5992H81.537V20.2941H76.1489V22.3178H82.8524V24H74.4666Z" fill="black"/>
<defs>
<filter id="filter0_d_344_551" x="-115.882" y="-105.692" width="257.764" height="257.764" filterUnits="userSpaceOnUse" color-interpolation-filters="sRGB">
<feFlood flood-opacity="0" result="BackgroundImageFix"/>
<feColorMatrix in="SourceAlpha" type="matrix" values="0 0 0 0 0 0 0 0 0 0 0 0 0 0 0 0 0 0 127 0" result="hardAlpha"/>
<feOffset dy="9.19057"/>
<feGaussianBlur stdDeviation="57.4411"/>
<feComposite in2="hardAlpha" operator="out"/>
<feColorMatrix type="matrix" values="0 0 0 0 0 0 0 0 0 0 0 0 0 0 0 0 0 0 0.1 0"/>
<feBlend mode="normal" in2="BackgroundImageFix" result="effect1_dropShadow_344_551"/>
<feBlend mode="normal" in="SourceGraphic" in2="effect1_dropShadow_344_551" result="shape"/>
</filter>
<linearGradient id="paint0_linear_344_551" x1="13" y1="3.16289e-07" x2="2.3871" y2="28.828" gradientUnits="userSpaceOnUse">
<stop stop-color="#512FBB"/>
<stop offset="1" stop-color="#2D099B"/>
</linearGradient>
</defs>
</svg>
