<svg viewBox="0 0 96 28" fill="none" xmlns="http://www.w3.org/2000/svg">
<g filter="url(#filter0_d_691_831)">
<rect width="28" height="28" rx="7.44063" fill="url(#paint0_linear_691_831)"/>
<path fill-rule="evenodd" clip-rule="evenodd" d="M9.17913 13.5967C8.458 13.2983 7.66504 13.8284 7.66504 14.6088V20.4765C7.66504 21.7885 8.7287 22.8522 10.0408 22.8522C11.3529 22.8522 12.4165 21.7886 12.4165 20.4765V18.8406C12.4165 17.9318 12.108 17.0499 11.5413 16.3394L9.61669 13.9259C9.50106 13.7809 9.3505 13.6676 9.17913 13.5967ZM7.66504 8.8282C7.66504 10.9774 9.30716 12.7704 11.4481 12.9587L12.4411 13.0461V14.5226C12.4411 16.0806 13.7042 17.3436 15.2622 17.3436C16.5675 17.3436 17.6727 17.1087 18.5778 16.6387C19.6395 16.0992 20.4749 15.3247 21.0841 14.3152C21.7106 13.3057 22.0239 12.2005 22.0239 10.9996C22.0239 9.79868 21.7106 8.70219 21.0841 7.71012C20.4575 6.70065 19.6134 5.92614 18.5517 5.38659C17.6292 4.91667 16.5327 4.6817 15.2622 4.6817H11.8115C9.52149 4.6817 7.66504 6.53815 7.66504 8.8282ZM12.4411 13.0461L15.5038 13.3156C16.0301 13.3156 16.4756 13.2209 16.8405 13.0315C17.2685 12.814 17.6053 12.5017 17.8509 12.0948C18.1035 11.6878 18.2298 11.2423 18.2298 10.7581C18.2298 10.274 18.1035 9.83193 17.8509 9.43199C17.5983 9.02503 17.258 8.7128 16.83 8.49528C16.4581 8.30584 16.0161 8.21112 15.5038 8.21112C13.8124 8.21112 12.4411 9.58234 12.4411 11.2738V13.0461Z" fill="white"/>
</g>
<path d="M32.706 13V3.93599H40.0177C40.337 3.93599 40.6312 4.01583 40.9001 4.17551C41.1691 4.33519 41.3834 4.5495 41.5431 4.81844C41.7027 5.07897 41.7826 5.36892 41.7826 5.68828V8.13392C41.7826 8.45329 41.7027 8.74744 41.5431 9.01637C41.3834 9.28531 41.1691 9.49962 40.9001 9.6593C40.6312 9.81058 40.337 9.88622 40.0177 9.88622L34.37 9.89882V13H32.706ZM34.5213 8.20956H39.942C39.9841 8.20956 40.0219 8.19696 40.0555 8.17174C40.0891 8.14653 40.1059 8.11291 40.1059 8.07089V5.75131C40.1059 5.70929 40.0891 5.67567 40.0555 5.65046C40.0219 5.61684 39.9841 5.60003 39.942 5.60003H34.5213C34.4793 5.60003 34.4414 5.61684 34.4078 5.65046C34.3826 5.67567 34.37 5.70929 34.37 5.75131V8.07089C34.37 8.11291 34.3826 8.14653 34.4078 8.17174C34.4414 8.19696 34.4793 8.20956 34.5213 8.20956ZM49.9139 13L47.1783 9.73494H49.3592L51.7292 12.5336V13H49.9139ZM42.6778 13V3.93599H49.9896C50.3089 3.93599 50.6031 4.01583 50.872 4.17551C51.1409 4.33519 51.3552 4.5495 51.5149 4.81844C51.6746 5.07897 51.7544 5.36892 51.7544 5.68828V8.13392C51.7544 8.45329 51.6746 8.74744 51.5149 9.01637C51.3552 9.28531 51.1409 9.49962 50.872 9.6593C50.6031 9.81058 50.3089 9.88622 49.9896 9.88622L44.3419 9.89882V13H42.6778ZM44.4932 8.20956H49.9139C49.9559 8.20956 49.9938 8.19696 50.0274 8.17174C50.061 8.14653 50.0778 8.11291 50.0778 8.07089V5.75131C50.0778 5.70929 50.061 5.67567 50.0274 5.65046C49.9938 5.61684 49.9559 5.60003 49.9139 5.60003H44.4932C44.4511 5.60003 44.4133 5.61684 44.3797 5.65046C44.3545 5.67567 44.3419 5.70929 44.3419 5.75131V8.07089C44.3419 8.11291 44.3545 8.14653 44.3797 8.17174C44.4133 8.19696 44.4511 8.20956 44.4932 8.20956ZM52.9041 13V3.92338H54.5555V13H52.9041ZM57.529 13C57.2096 13 56.9155 12.9202 56.6465 12.7605C56.386 12.6008 56.1759 12.3907 56.0162 12.1302C55.8565 11.8612 55.7767 11.5671 55.7767 11.2477V5.67567C55.7767 5.35631 55.8565 5.06636 56.0162 4.80583C56.1759 4.53689 56.386 4.32258 56.6465 4.1629C56.9155 4.00322 57.2096 3.92338 57.529 3.92338H64.8281V5.60003H57.882C57.7475 5.60003 57.6382 5.63785 57.5542 5.71349C57.4785 5.78913 57.4407 5.89839 57.4407 6.04126V10.8821C57.4407 11.0166 57.4785 11.1258 57.5542 11.2099C57.6382 11.2855 57.7475 11.3233 57.882 11.3233H64.8281V13H57.529ZM66.1677 13V3.92338H74.5258V5.60003H67.8444V7.61706H73.2147V9.30632H67.8444V11.3233H74.5258V13H66.1677ZM34.433 24C34.1137 24 33.8195 23.9202 33.5506 23.7605C33.2901 23.6008 33.0799 23.3907 32.9203 23.1302C32.7606 22.8612 32.6807 22.5671 32.6807 22.2477V16.6757C32.6807 16.3563 32.7606 16.0664 32.9203 15.8058C33.0799 15.5369 33.2901 15.3226 33.5506 15.1629C33.8195 15.0032 34.1137 14.9234 34.433 14.9234H40.0051C40.3244 14.9234 40.6144 15.0032 40.8749 15.1629C41.1439 15.3226 41.3582 15.5369 41.5178 15.8058C41.6775 16.0664 41.7574 16.3563 41.7574 16.6757V22.2477C41.7574 22.5671 41.6775 22.8612 41.5178 23.1302C41.3582 23.3907 41.1439 23.6008 40.8749 23.7605C40.6144 23.9202 40.3244 24 40.0051 24H34.433ZM34.4961 22.3233H39.9168C39.9589 22.3233 39.9967 22.3107 40.0303 22.2855C40.0639 22.2519 40.0807 22.2141 40.0807 22.1721V16.7513C40.0807 16.7093 40.0639 16.6757 40.0303 16.6505C39.9967 16.6168 39.9589 16.6 39.9168 16.6H34.4961C34.454 16.6 34.4162 16.6168 34.3826 16.6505C34.3574 16.6757 34.3448 16.7093 34.3448 16.7513V22.1721C34.3448 22.2141 34.3574 22.2519 34.3826 22.2855C34.4162 22.3107 34.454 22.3233 34.4961 22.3233ZM43.1709 24V14.9234H51.5289V16.6H44.8475V18.6171H50.2178V20.3063H44.8475V24H43.1709ZM52.281 24V14.9234H60.639V16.6H53.9576V18.6171H59.328V20.3063H53.9576V24H52.281ZM61.1894 24V14.9234H62.8408V24H61.1894ZM65.8142 24C65.4949 24 65.2007 23.9202 64.9318 23.7605C64.6713 23.6008 64.4612 23.3907 64.3015 23.1302C64.1418 22.8612 64.062 22.5671 64.062 22.2477V16.6757C64.062 16.3563 64.1418 16.0664 64.3015 15.8058C64.4612 15.5369 64.6713 15.3226 64.9318 15.1629C65.2007 15.0032 65.4949 14.9234 65.8142 14.9234H73.1134V16.6H66.1672C66.0328 16.6 65.9235 16.6379 65.8395 16.7135C65.7638 16.7891 65.726 16.8984 65.726 17.0413V21.8821C65.726 22.0166 65.7638 22.1258 65.8395 22.2099C65.9235 22.2855 66.0328 22.3233 66.1672 22.3233H73.1134V24H65.8142ZM74.453 24V14.9234H82.811V16.6H76.1296V18.6171H81.5V20.3063H76.1296V22.3233H82.811V24H74.453ZM91.3156 24L88.5801 20.7349H90.761L93.131 23.5336V24H91.3156ZM84.0796 24V14.936H91.3913C91.7106 14.936 92.0048 15.0158 92.2737 15.1755C92.5427 15.3352 92.757 15.5495 92.9167 15.8184C93.0763 16.079 93.1562 16.3689 93.1562 16.6883V19.1339C93.1562 19.4533 93.0763 19.7474 92.9167 20.0164C92.757 20.2853 92.5427 20.4996 92.2737 20.6593C92.0048 20.8106 91.7106 20.8862 91.3913 20.8862L85.7436 20.8988V24H84.0796ZM85.8949 19.2096H91.3156C91.3577 19.2096 91.3955 19.197 91.4291 19.1717C91.4627 19.1465 91.4795 19.1129 91.4795 19.0709V16.7513C91.4795 16.7093 91.4627 16.6757 91.4291 16.6505C91.3955 16.6168 91.3577 16.6 91.3156 16.6H85.8949C85.8529 16.6 85.815 16.6168 85.7814 16.6505C85.7562 16.6757 85.7436 16.7093 85.7436 16.7513V19.0709C85.7436 19.1129 85.7562 19.1465 85.7814 19.1717C85.815 19.197 85.8529 19.2096 85.8949 19.2096Z" fill="black"/>
<defs>
<filter id="filter0_d_691_831" x="-113.566" y="-104.481" width="255.132" height="255.132" filterUnits="userSpaceOnUse" color-interpolation-filters="sRGB">
<feFlood flood-opacity="0" result="BackgroundImageFix"/>
<feColorMatrix in="SourceAlpha" type="matrix" values="0 0 0 0 0 0 0 0 0 0 0 0 0 0 0 0 0 0 127 0" result="hardAlpha"/>
<feOffset dy="9.08526"/>
<feGaussianBlur stdDeviation="56.7829"/>
<feComposite in2="hardAlpha" operator="out"/>
<feColorMatrix type="matrix" values="0 0 0 0 0 0 0 0 0 0 0 0 0 0 0 0 0 0 0.1 0"/>
<feBlend mode="normal" in2="BackgroundImageFix" result="effect1_dropShadow_691_831"/>
<feBlend mode="normal" in="SourceGraphic" in2="effect1_dropShadow_691_831" result="shape"/>
</filter>
<linearGradient id="paint0_linear_691_831" x1="14" y1="3.16289e-07" x2="3.3871" y2="28.828" gradientUnits="userSpaceOnUse">
<stop stop-color="#512FBB"/>
<stop offset="1" stop-color="#2D099B"/>
</linearGradient>
</defs>
</svg>
